<svg width="18" height="16" viewBox="0 0 18 16" fill="none" xmlns="http://www.w3.org/2000/svg">
<path fill-rule="evenodd" clip-rule="evenodd" d="M1.66406 8.93711C1.66406 8.50909 2.01104 8.16211 2.43906 8.16211H6.81406C7.24208 8.16211 7.58906 8.50909 7.58906 8.93711C7.58906 9.36513 7.24208 9.71211 6.81406 9.71211H3.21406V14.5621C3.21406 14.9901 2.86708 15.3371 2.43906 15.3371C2.01104 15.3371 1.66406 14.9901 1.66406 14.5621V8.93711Z" fill="white"/>
<path fill-rule="evenodd" clip-rule="evenodd" d="M0.414062 14.5621C0.414062 14.1341 0.761042 13.7871 1.18906 13.7871H16.8141C17.2421 13.7871 17.5891 14.1341 17.5891 14.5621C17.5891 14.9901 17.2421 15.3371 16.8141 15.3371H1.18906C0.761042 15.3371 0.414062 14.9901 0.414062 14.5621Z" fill="white"/>
<path fill-rule="evenodd" clip-rule="evenodd" d="M6.03906 5.18711C6.03906 4.75909 6.38604 4.41211 6.81406 4.41211H11.1891C11.6171 4.41211 11.9641 4.75909 11.9641 5.18711C11.9641 5.61513 11.6171 5.96211 11.1891 5.96211H7.58906V14.5621C7.58906 14.9901 7.24208 15.3371 6.81406 15.3371C6.38604 15.3371 6.03906 14.9901 6.03906 14.5621V5.18711Z" fill="white"/>
<path fill-rule="evenodd" clip-rule="evenodd" d="M10.4141 1.43711C10.4141 1.00909 10.761 0.662109 11.1891 0.662109H15.5641C15.9921 0.662109 16.3391 1.00909 16.3391 1.43711V14.5621C16.3391 14.9901 15.9921 15.3371 15.5641 15.3371H11.1891C10.761 15.3371 10.4141 14.9901 10.4141 14.5621V1.43711ZM11.9641 2.21211V13.7871H14.7891V2.21211H11.9641Z" fill="white"/>
</svg>
