<svg width="20" height="16" viewBox="0 0 20 16" fill="none" xmlns="http://www.w3.org/2000/svg">
<path fill-rule="evenodd" clip-rule="evenodd" d="M14.6125 13.25V14.7875C14.6142 14.8854 14.5963 14.9826 14.56 15.0736C14.5236 15.1645 14.4696 15.2473 14.4009 15.3171C14.3323 15.3869 14.2505 15.4423 14.1601 15.4802C14.0698 15.518 13.9729 15.5375 13.875 15.5375C13.6761 15.5375 13.4853 15.4585 13.3446 15.3178C13.204 15.1772 13.125 14.9864 13.125 14.7875V13.25C13.125 12.6267 12.8774 12.029 12.4367 11.5883C11.996 11.1476 11.3982 10.9 10.775 10.9H4.58747C3.96638 10.9033 3.37189 11.1523 2.93388 11.5927C2.49587 12.033 2.24997 12.6289 2.24998 13.25V14.7875C2.24998 14.9864 2.17098 15.1772 2.03033 15.3178C1.88967 15.4585 1.69888 15.5375 1.49997 15.5375C1.30106 15.5375 1.1103 15.4585 0.96965 15.3178C0.828998 15.1772 0.75 14.9864 0.75 14.7875V13.25C0.75 12.2322 1.15429 11.2561 1.87396 10.5365C2.59363 9.8168 3.5697 9.41247 4.58747 9.41247H10.775C11.2794 9.41082 11.7791 9.50898 12.2455 9.70125C12.7118 9.89351 13.1355 10.1761 13.4922 10.5328C13.8489 10.8894 14.1315 11.3132 14.3237 11.7795C14.516 12.2458 14.6141 12.7456 14.6125 13.25Z" fill="white"/>
<path fill-rule="evenodd" clip-rule="evenodd" d="M7.64998 0.125C6.891 0.125 6.14906 0.350074 5.51799 0.771744C4.88691 1.19341 4.39505 1.79275 4.1046 2.49396C3.81415 3.19518 3.73814 3.96674 3.88621 4.71114C4.03428 5.45554 4.39979 6.13933 4.93647 6.67602C5.47316 7.2127 6.15691 7.57821 6.90131 7.72628C7.64571 7.87435 8.41732 7.79834 9.11853 7.50789C9.81974 7.21744 10.4191 6.72558 10.8407 6.0945C11.2624 5.46343 11.4875 4.72149 11.4875 3.96251C11.4842 2.94575 11.0788 1.97158 10.3599 1.25262C9.64091 0.533667 8.66674 0.128296 7.64998 0.125ZM7.64998 6.31251C7.1852 6.31251 6.73086 6.17469 6.3444 5.91647C5.95795 5.65825 5.65671 5.29123 5.47885 4.86182C5.30098 4.43242 5.25447 3.95991 5.34514 3.50406C5.43582 3.0482 5.65965 2.62944 5.9883 2.30079C6.31695 1.97214 6.73568 1.74834 7.19153 1.65767C7.64739 1.56699 8.11989 1.61351 8.5493 1.79137C8.9787 1.96924 9.34573 2.27047 9.60395 2.65693C9.86217 3.04338 9.99999 3.49772 9.99999 3.96251C9.99999 4.58577 9.75238 5.18348 9.31166 5.62419C8.87095 6.0649 8.27324 6.31251 7.64998 6.31251Z" fill="white"/>
<path fill-rule="evenodd" clip-rule="evenodd" d="M19.25 13.25V14.7875C19.2516 14.8854 19.2338 14.9826 19.1975 15.0736C19.1612 15.1645 19.1071 15.2473 19.0385 15.3171C18.9698 15.3869 18.8879 15.4423 18.7976 15.4802C18.7073 15.518 18.6104 15.5375 18.5125 15.5375C18.3136 15.5375 18.1228 15.4585 17.9822 15.3178C17.8415 15.1772 17.7625 14.9864 17.7625 14.7875V13.25C17.7646 12.7285 17.5922 12.2213 17.2728 11.8091C16.9535 11.3969 16.5054 11.1032 16 10.975C15.8079 10.925 15.6434 10.8009 15.5427 10.6298C15.4419 10.4588 15.4131 10.2548 15.4625 10.0625C15.488 9.96802 15.5322 9.87955 15.5923 9.8023C15.6523 9.72504 15.7272 9.66051 15.8125 9.61248C15.9244 9.54173 16.0552 9.50686 16.1875 9.51249C16.2494 9.50036 16.3131 9.50036 16.375 9.51249C17.2029 9.72473 17.9358 10.2081 18.4569 10.8855C18.978 11.5629 19.2572 12.3954 19.25 13.25Z" fill="white"/>
<path fill-rule="evenodd" clip-rule="evenodd" d="M16.1625 3.975C16.1696 4.83288 15.8891 5.66838 15.3657 6.34813C14.8423 7.02787 14.1062 7.51265 13.275 7.725C13.1809 7.75027 13.0828 7.75664 12.9862 7.74377C12.8897 7.7309 12.7966 7.69899 12.7125 7.64997C12.5442 7.5455 12.4231 7.37963 12.375 7.18747C12.3497 7.09341 12.3433 6.99529 12.3562 6.89874C12.3691 6.80219 12.4009 6.70916 12.45 6.625C12.5554 6.45759 12.7209 6.33681 12.9125 6.28747C13.4166 6.15697 13.8631 5.86272 14.1818 5.45095C14.5005 5.03918 14.6735 4.53323 14.6735 4.0125C14.6735 3.49178 14.5005 2.98579 14.1818 2.57402C13.8631 2.16225 13.4166 1.868 12.9125 1.73749C12.7199 1.68279 12.5549 1.55791 12.45 1.38749C12.4003 1.3036 12.368 1.21052 12.3551 1.11387C12.3422 1.01722 12.349 0.918964 12.375 0.824979C12.3983 0.730336 12.4402 0.641265 12.4982 0.56291C12.5562 0.484555 12.6291 0.418496 12.7128 0.368513C12.7965 0.318529 12.8893 0.285601 12.9858 0.271696C13.0823 0.257791 13.1806 0.263171 13.275 0.287489C14.0958 0.497192 14.8242 0.972616 15.3465 1.63965C15.8688 2.30668 16.1557 3.12783 16.1625 3.975Z" fill="white"/>
</svg>
