<svg width="20" height="16" viewBox="0 0 20 16" fill="none" xmlns="http://www.w3.org/2000/svg">
<path fill-rule="evenodd" clip-rule="evenodd" d="M0.835938 1.03633C0.835938 0.651673 1.14641 0.339844 1.52939 0.339844H13.0838C13.4668 0.339844 13.7772 0.651673 13.7772 1.03633V11.094C13.7772 11.4787 13.4668 11.7905 13.0838 11.7905H1.52939C1.14641 11.7905 0.835938 11.4787 0.835938 11.094V1.03633ZM2.22284 1.73282V10.3975H12.3903V1.73282H2.22284Z" fill="white"/>
<path fill-rule="evenodd" clip-rule="evenodd" d="M12.3903 4.90469C12.3903 4.52003 12.7008 4.2082 13.0838 4.2082H16.1649C16.3489 4.2082 16.5252 4.28158 16.6553 4.4122L18.9662 6.7332C19.0962 6.86381 19.1693 7.04097 19.1693 7.22569V11.094C19.1693 11.4787 18.8588 11.7905 18.4758 11.7905L13.0838 11.7905C12.7008 11.7905 12.3903 11.4787 12.3903 11.094V4.90469ZM13.7772 5.60118V10.3975H17.7824V7.51419L15.8777 5.60118H13.7772Z" fill="white"/>
<path fill-rule="evenodd" clip-rule="evenodd" d="M4.99566 11.7905C4.31509 11.7905 3.76338 12.3446 3.76338 13.0281C3.76338 13.7117 4.31509 14.2658 4.99566 14.2658C5.67623 14.2658 6.22794 13.7117 6.22794 13.0281C6.22794 12.3446 5.67623 11.7905 4.99566 11.7905ZM2.37648 13.0281C2.37648 11.5753 3.54912 10.3975 4.99566 10.3975C6.4422 10.3975 7.61484 11.5753 7.61484 13.0281C7.61484 14.481 6.4422 15.6588 4.99566 15.6588C3.54912 15.6588 2.37648 14.481 2.37648 13.0281Z" fill="white"/>
<path fill-rule="evenodd" clip-rule="evenodd" d="M15.0095 11.7905C14.3289 11.7905 13.7772 12.3446 13.7772 13.0281C13.7772 13.7117 14.3289 14.2658 15.0095 14.2658C15.6901 14.2658 16.2418 13.7117 16.2418 13.0281C16.2418 12.3446 15.6901 11.7905 15.0095 11.7905ZM12.3903 13.0281C12.3903 11.5753 13.563 10.3975 15.0095 10.3975C16.456 10.3975 17.6287 11.5753 17.6287 13.0281C17.6287 14.481 16.456 15.6588 15.0095 15.6588C13.563 15.6588 12.3903 14.481 12.3903 13.0281Z" fill="white"/>
</svg>
