<svg width="18" height="18" viewBox="0 0 18 18" fill="none" xmlns="http://www.w3.org/2000/svg">
<path d="M16.9993 10.9414C17.371 10.9414 17.6811 11.2102 17.7435 11.5968L17.75 11.7L17.7495 15.2321C17.7495 16.5585 16.7164 17.655 15.3813 17.7448L15.2153 17.75L2.77794 17.7499C1.44615 17.7499 0.345286 16.7208 0.255253 15.391L0.25 15.2258V11.6863C0.25 11.2749 0.585964 10.9414 1.00027 10.9414C1.37194 10.9414 1.68197 11.2102 1.74442 11.5968L1.75092 11.7L1.75044 15.2321C1.75044 15.7555 2.14596 16.2013 2.65248 16.2534L2.76695 16.2599L15.2217 16.2602C15.7449 16.2602 16.1902 15.8642 16.2423 15.3577L16.2489 15.2429L16.2492 11.6863C16.2492 11.2749 16.585 10.9414 16.9993 10.9414ZM9.01207 0.25C9.37148 0.250378 9.68151 0.519212 9.74396 0.905762L9.75046 1.00892L9.75124 9.8297L12.9124 6.67494C13.1433 6.44469 13.4923 6.39342 13.7961 6.54761L13.9083 6.61495L13.9846 6.68297C14.2334 6.92976 14.2646 7.33058 14.0409 7.65049L13.9652 7.73721L9.51424 12.1745L9.43271 12.2409L9.32712 12.3035L9.23677 12.3399L9.15501 12.3617L9.07541 12.374L9.01331 12.3765L8.89007 12.3697L8.78548 12.3471L8.70291 12.3166L8.6007 12.2643L8.54241 12.2224L8.4569 12.1479L4.02399 7.726C3.73169 7.43447 3.73275 6.96287 4.02636 6.67264C4.28648 6.41551 4.69029 6.38633 5.01149 6.60986L5.09848 6.68534L8.25064 9.82956L8.24964 0.995196C8.24964 0.618676 8.53272 0.302507 8.90546 0.256191L9.01207 0.25Z" fill="#4D4D4D"/>
</svg>
