<svg width="20" height="16" viewBox="0 0 20 16" fill="none" xmlns="http://www.w3.org/2000/svg">
<path fill-rule="evenodd" clip-rule="evenodd" d="M12.1074 0.290837C13.0654 -0.231661 14.2333 0.461666 14.2333 1.55281V14.4471C14.2333 15.5383 13.0653 16.2316 12.1074 15.7091L4.04696 11.3125H2.375C1.23591 11.3125 0.3125 10.3891 0.3125 9.24999V6.74999C0.3125 5.6109 1.23591 4.68749 2.375 4.68749H4.04692L12.1074 0.290837ZM12.6083 1.86866L5.06662 5.9823V10.0176L12.6083 14.1313V1.86866ZM1.9375 6.74999C1.9375 6.50836 2.13338 6.31249 2.375 6.31249H3.4375V9.68749H2.375C2.13338 9.68749 1.9375 9.49161 1.9375 9.24999V6.74999Z" fill="white"/>
<path d="M18.6387 3.32573C18.919 3.67613 18.8622 4.18743 18.5118 4.46775L16.4284 6.13442C16.078 6.41474 15.5667 6.35793 15.2864 6.00753C15.0061 5.65713 15.0629 5.14583 15.4133 4.86551L17.4966 3.19884C17.847 2.91852 18.3583 2.97533 18.6387 3.32573Z" fill="white"/>
<path d="M15.5041 8.02081C15.5041 7.57208 15.8679 7.20831 16.3166 7.20831H18.8583C19.307 7.20831 19.6708 7.57208 19.6708 8.02081C19.6708 8.46955 19.307 8.83331 18.8583 8.83331H16.3166C15.8679 8.83331 15.5041 8.46955 15.5041 8.02081Z" fill="white"/>
<path d="M16.4284 10.2822C16.078 10.0019 15.5667 10.0587 15.2864 10.4091C15.0061 10.7595 15.0629 11.2708 15.4133 11.5511L17.4966 13.2178C17.847 13.4981 18.3583 13.4413 18.6387 13.0909C18.919 12.7405 18.8622 12.2292 18.5118 11.9489L16.4284 10.2822Z" fill="white"/>
</svg>
