<svg width="18" height="20" viewBox="0 0 18 20" fill="none" xmlns="http://www.w3.org/2000/svg">
<path fill-rule="evenodd" clip-rule="evenodd" d="M13.3001 1.98737C13.1148 1.19626 12.4087 0.625 11.5834 0.625H6.42281L6.29189 0.629913L6.15581 0.645423L6.02199 0.671421C5.23088 0.856753 4.65962 1.56287 4.65962 2.38819V2.60323H3.19746L3.04743 2.60717C1.70608 2.67794 0.617188 3.69145 0.617188 4.96848V17.0098L0.621626 17.1505C0.701137 18.4071 1.83856 19.375 3.19746 19.375H14.8087L14.9587 19.3711C16.3001 19.3003 17.389 18.2868 17.389 17.0098V4.96848L17.3845 4.82771C17.305 3.57113 16.1676 2.60323 14.8087 2.60323H13.3466V2.38819L13.3416 2.25726L13.3261 2.12119L13.3001 1.98737ZM13.3466 3.89336V4.10837C13.3466 4.93369 12.7753 5.63981 11.9842 5.82514L11.8504 5.85114L11.7143 5.86665L11.5834 5.87156H6.42281C5.5975 5.87156 4.89138 5.3003 4.70604 4.5092L4.68005 4.37537L4.66454 4.2393L4.65962 4.10837V3.89336H3.19746C2.51197 3.89336 1.974 4.33572 1.91308 4.86776L1.90733 4.96848V17.0098C1.90733 17.5516 2.40497 18.0259 3.07074 18.0798L3.19746 18.0849H14.8087C15.4942 18.0849 16.0322 17.6425 16.0931 17.1105L16.0988 17.0098V4.96848C16.0988 4.42661 15.6012 3.95238 14.9354 3.89846L14.8087 3.89336H13.3466ZM6.68057 1.61411H11.3256C11.7726 1.61411 12.1621 1.90084 12.3034 2.31864L12.3334 2.42573L12.3516 2.53612L12.3577 2.64625L12.3572 3.86708L12.3482 3.98931L12.3269 4.10085L12.2899 4.21899C12.1812 4.50363 11.9513 4.72443 11.6618 4.8251L11.5506 4.85711L11.4343 4.87652L11.3256 4.88246L6.66384 4.88191L6.54161 4.87291L6.43006 4.85165L6.31193 4.81468C6.02729 4.70593 5.80648 4.47604 5.70581 4.18656L5.6738 4.07533L5.65439 3.95905L5.64846 3.85031L5.649 2.62948L5.65801 2.50725L5.67926 2.39571L5.71623 2.27757C5.82499 1.99293 6.05487 1.77213 6.34435 1.67146L6.45558 1.63945L6.57186 1.62004L6.68057 1.61411Z" fill="white"/>
<path d="M4.46602 10.5959C4.94124 10.5959 5.32649 10.2107 5.32649 9.73547C5.32649 9.26025 4.94124 8.875 4.46602 8.875C3.99079 8.875 3.60555 9.26025 3.60555 9.73547C3.60555 10.2107 3.99079 10.5959 4.46602 10.5959Z" fill="white"/>
<path d="M7.04746 8.9485C6.61543 8.9485 6.26521 9.29872 6.26521 9.73075C6.26521 10.1628 6.61543 10.513 7.04746 10.513H13.6183C14.0503 10.513 14.4006 10.1628 14.4006 9.73075C14.4006 9.29872 14.0503 8.9485 13.6183 8.9485H7.04746Z" fill="white"/>
<path d="M6.26524 14.1522C6.26524 13.7202 6.61547 13.3699 7.04749 13.3699H13.6184C14.0504 13.3699 14.4006 13.7202 14.4006 14.1522C14.4006 14.5842 14.0504 14.9344 13.6184 14.9344H7.04749C6.61547 14.9344 6.26524 14.5842 6.26524 14.1522Z" fill="white"/>
<path d="M4.46605 15.0174C4.94127 15.0174 5.32652 14.6321 5.32652 14.1569C5.32652 13.6817 4.94127 13.2964 4.46605 13.2964C3.99082 13.2964 3.60558 13.6817 3.60558 14.1569C3.60558 14.6321 3.99082 15.0174 4.46605 15.0174Z" fill="white"/>
</svg>
