<svg width="20" height="16" viewBox="0 0 20 16" fill="none" xmlns="http://www.w3.org/2000/svg">
<path fill-rule="evenodd" clip-rule="evenodd" d="M3.75 11.75H1.47727C0.661397 11.75 0 11.1904 0 10.5V1.75C0 1.05964 0.661397 0.5 1.47727 0.5H14.7727C15.5886 0.5 16.25 1.05964 16.25 1.75L16.25 4.25H18.5227C19.3386 4.25 20 4.8796 20 5.65625V14.0938C20 14.8704 19.3386 15.5 18.5227 15.5H5.22727C4.4114 15.5 3.75 14.8704 3.75 14.0938V11.75ZM5 4C4.17157 4 3.5 4.67157 3.5 5.5V10.25H1.5V2H14.75L14.75 4H5ZM11.875 12.375C13.2557 12.375 14.375 11.2557 14.375 9.875C14.375 8.49429 13.2557 7.375 11.875 7.375C10.4943 7.375 9.375 8.49429 9.375 9.875C9.375 11.2557 10.4943 12.375 11.875 12.375Z" fill="white"/>
</svg>
