<svg width="18" height="19" viewBox="0 0 18 19" fill="none" xmlns="http://www.w3.org/2000/svg">
<path fill-rule="evenodd" clip-rule="evenodd" d="M17.8071 7.41667C17.6821 7.16667 17.4238 7 17.1405 7H10.0905L10.8655 0.816667C10.9071 0.5 10.7321 0.183333 10.4321 0.0583333C10.3405 0.0166667 10.2405 0 10.1488 0C9.93212 0 9.72378 0.0916667 9.58212 0.258333L0.832118 10.7583C0.648785 10.975 0.615451 11.2833 0.732118 11.5333C0.848785 11.7917 1.11545 11.9583 1.39045 11.9583H8.44045L7.66545 18.1333C7.63212 18.4583 7.80712 18.7667 8.09878 18.9C8.39878 19.025 8.74878 18.9417 8.95712 18.6917L17.7071 8.19167C17.8821 7.975 17.9238 7.675 17.8071 7.41667ZM9.42378 15.85L9.99045 11.3167C10.0155 11.1083 9.94878 10.9 9.81545 10.7417C9.67378 10.5917 9.47378 10.5 9.26545 10.5H2.94878L9.10712 3.10833L8.54045 7.63333C8.51545 7.84167 8.58212 8.05 8.72378 8.20833C8.85712 8.36667 9.05712 8.45833 9.26545 8.45833H15.5821L9.42378 15.85Z" fill="white"/>
</svg>
