<svg width="18" height="18" viewBox="0 0 18 18" fill="none" xmlns="http://www.w3.org/2000/svg">
<path d="M16.0783 9.83268C16.7686 9.83268 17.3283 10.3923 17.3283 11.0827V16.0827C17.3283 16.773 16.7686 17.3327 16.0783 17.3327H11.0783C10.3879 17.3327 9.82829 16.773 9.82829 16.0827V11.0827C9.82829 10.3923 10.3879 9.83268 11.0783 9.83268H16.0783ZM6.91406 9.83268C7.60442 9.83268 8.16406 10.3923 8.16406 11.0827V16.0827C8.16406 16.773 7.60442 17.3327 6.91406 17.3327H1.91406C1.22371 17.3327 0.664062 16.773 0.664062 16.0827V11.0827C0.664062 10.3923 1.22371 9.83268 1.91406 9.83268H6.91406ZM15.9116 11.2493H11.2449V15.916H15.9116V11.2493ZM6.7474 11.2493H2.08073V15.916H6.7474V11.2493ZM6.91406 0.666016C7.60442 0.666016 8.16406 1.22566 8.16406 1.91602V6.91602C8.16406 7.60637 7.60442 8.16602 6.91406 8.16602H1.91406C1.22371 8.16602 0.664062 7.60637 0.664062 6.91602V1.91602C0.664062 1.22566 1.22371 0.666016 1.91406 0.666016H6.91406ZM16.0783 0.666016C16.7686 0.666016 17.3283 1.22566 17.3283 1.91602V6.91602C17.3283 7.60637 16.7686 8.16602 16.0783 8.16602H11.0783C10.3879 8.16602 9.82829 7.60637 9.82829 6.91602V1.91602C9.82829 1.22566 10.3879 0.666016 11.0783 0.666016H16.0783ZM6.7474 2.08268H2.08073V6.74935H6.7474V2.08268ZM15.9116 2.08268H11.2449V6.74935H15.9116V2.08268Z" fill="white"/>
</svg>
