<svg width="14" height="12" viewBox="0 0 14 12" fill="none" xmlns="http://www.w3.org/2000/svg">
<path fill-rule="evenodd" clip-rule="evenodd" d="M0.624959 7.93424C0.833239 7.72596 1.17093 7.72596 1.37921 7.93424L3.64295 10.198L5.90669 7.93424C6.11497 7.72596 6.45266 7.72596 6.66094 7.93424C6.86922 8.14252 6.86922 8.48021 6.66094 8.68849L4.02007 11.3294C3.81179 11.5376 3.47411 11.5376 3.26583 11.3294L0.624959 8.68849C0.41668 8.48021 0.41668 8.14252 0.624959 7.93424Z" fill="#4D4D4D"/>
<path fill-rule="evenodd" clip-rule="evenodd" d="M3.6429 0.515641C3.93746 0.515641 4.17624 0.754422 4.17624 1.04897L4.17624 10.9522C4.17624 11.2468 3.93746 11.4856 3.6429 11.4856C3.34835 11.4856 3.10957 11.2468 3.10957 10.9522L3.10957 1.04897C3.10957 0.754422 3.34835 0.515641 3.6429 0.515641Z" fill="#4D4D4D"/>
<path fill-rule="evenodd" clip-rule="evenodd" d="M13.3792 4.06695C13.1709 4.27523 12.8332 4.27523 12.6249 4.06695L10.3612 1.8032L8.09745 4.06695C7.88917 4.27523 7.55149 4.27523 7.34321 4.06695C7.13493 3.85867 7.13493 3.52098 7.34321 3.3127L9.98408 0.671834C10.1924 0.463555 10.53 0.463555 10.7383 0.671835L13.3792 3.3127C13.5875 3.52098 13.5875 3.85867 13.3792 4.06695Z" fill="#4D4D4D"/>
<path fill-rule="evenodd" clip-rule="evenodd" d="M10.3612 11.4855C10.0667 11.4855 9.82791 11.2468 9.82791 10.9522L9.82791 1.04896C9.82791 0.75441 10.0667 0.51563 10.3612 0.51563C10.6558 0.51563 10.8946 0.75441 10.8946 1.04896L10.8946 10.9522C10.8946 11.2468 10.6558 11.4855 10.3612 11.4855Z" fill="#4D4D4D"/>
</svg>
