<svg width="24" height="20" viewBox="0 0 24 20" fill="none" xmlns="http://www.w3.org/2000/svg">
<path fill-rule="evenodd" clip-rule="evenodd" d="M3.00312 1.79727C2.42636 1.79727 1.80313 2.35527 1.80313 3.24727V16.7473C1.80313 17.6393 2.42636 18.1973 3.00312 18.1973H21.0031C21.5799 18.1973 22.2031 17.6393 22.2031 16.7473V13.8473H17.0032C14.8769 13.8473 13.1532 12.1236 13.1532 9.99727C13.1532 7.87097 14.8769 6.14727 17.0032 6.14727H22.2031V3.24727C22.2031 2.35527 21.5799 1.79727 21.0031 1.79727H3.00312ZM23.8031 6.14727V3.24727C23.8031 1.65398 22.6355 0.197266 21.0031 0.197266H3.00312C1.37075 0.197266 0.203125 1.65398 0.203125 3.24727V16.7473C0.203125 18.3405 1.37075 19.7973 3.00312 19.7973H21.0031C22.6355 19.7973 23.8031 18.3405 23.8031 16.7473V13.8473H23.8532V6.14727H23.8031ZM16.0032 9.94727C16.0032 9.47783 16.3837 9.09727 16.8532 9.09727H18.1532C18.6226 9.09727 19.0032 9.47783 19.0032 9.94727C19.0032 10.4167 18.6226 10.7973 18.1532 10.7973H16.8532C16.3837 10.7973 16.0032 10.4167 16.0032 9.94727ZM14.8532 9.99727C14.8532 8.80986 15.8158 7.84727 17.0032 7.84727H22.1532V12.1473H17.0032C15.8158 12.1473 14.8532 11.1847 14.8532 9.99727Z" fill="white"/>
</svg>
